<?xml version="1.0" encoding="UTF-8" standalone="no"?>
<!-- Created with Inkscape (http://www.inkscape.org/) -->

<svg
   xmlns:dc="http://purl.org/dc/elements/1.1/"
   xmlns:cc="http://creativecommons.org/ns#"
   xmlns:rdf="http://www.w3.org/1999/02/22-rdf-syntax-ns#"
   xmlns:svg="http://www.w3.org/2000/svg"
   xmlns="http://www.w3.org/2000/svg"
   xmlns:sodipodi="http://sodipodi.sourceforge.net/DTD/sodipodi-0.dtd"
   xmlns:inkscape="http://www.inkscape.org/namespaces/inkscape"
   width="1052.3622"
   height="744.09448"
   id="svg2"
   version="1.1"
   inkscape:version="0.48.0 r9654"
   sodipodi:docname="lettering.svg">
  <defs
     id="defs4" />
  <sodipodi:namedview
     id="base"
     pagecolor="#ffffff"
     bordercolor="#666666"
     borderopacity="1.0"
     inkscape:pageopacity="0.0"
     inkscape:pageshadow="2"
     inkscape:zoom="1"
     inkscape:cx="331.83174"
     inkscape:cy="171.15769"
     inkscape:document-units="px"
     inkscape:current-layer="layer1"
     showgrid="false"
     inkscape:window-width="1274"
     inkscape:window-height="1179"
     inkscape:window-x="0"
     inkscape:window-y="19"
     inkscape:window-maximized="0" />
  <metadata
     id="metadata7">
    <rdf:RDF>
      <cc:Work
         rdf:about="">
        <dc:format>image/svg+xml</dc:format>
        <dc:type
           rdf:resource="http://purl.org/dc/dcmitype/StillImage" />
        <dc:title />
      </cc:Work>
    </rdf:RDF>
  </metadata>
  <g
     inkscape:label="Layer 1"
     inkscape:groupmode="layer"
     id="layer1"
     transform="translate(0,-308.2677)">
    <text
       sodipodi:linespacing="125%"
       id="text3001"
       y="530.11334"
       x="92.934029"
       style="font-size:22px;font-style:italic;font-variant:normal;font-weight:bold;font-stretch:normal;text-align:center;line-height:125%;letter-spacing:0px;word-spacing:0px;writing-mode:lr-tb;text-anchor:middle;fill:#000000;fill-opacity:1;stroke:none;font-family:Liberation Serif;-inkscape-font-specification:Liberation Serif Bold Italic"
       xml:space="preserve"><tspan
         y="530.11334"
         x="92.934029"
         id="tspan3003"
         sodipodi:role="line">70 cm, 2x</tspan></text>
    <path
       style="font-size:50.95978546px;font-style:italic;font-variant:normal;font-weight:bold;font-stretch:normal;text-align:center;line-height:125%;letter-spacing:0px;word-spacing:0px;writing-mode:lr-tb;text-anchor:middle;fill:#000000;fill-opacity:1;stroke:none;font-family:Liberation Serif;-inkscape-font-specification:Liberation Serif Bold Italic"
       d="M 281.0625 362.15625 L 281.0625 387.625 L 286.15625 387.625 L 286.15625 367.25 L 291.25 367.25 L 291.25 387.625 L 296.34375 387.625 L 296.34375 367.25 L 301.4375 367.25 L 301.4375 387.625 L 306.53125 387.625 L 306.53125 362.15625 L 281.0625 362.15625 z M 311.625 362.15625 L 311.625 387.625 L 316.71875 387.625 L 316.71875 377.4375 L 321.8125 377.4375 L 321.8125 387.625 L 326.90625 387.625 L 326.90625 362.15625 L 311.625 362.15625 z M 332.03125 362.15625 L 332.03125 387.625 L 337.125 387.625 L 337.125 377.4375 L 342.21875 377.4375 L 342.21875 372.34375 L 337.125 372.34375 L 337.125 362.15625 L 332.03125 362.15625 z M 342.21875 372.34375 L 347.3125 372.34375 L 347.3125 362.15625 L 342.21875 362.15625 L 342.21875 372.34375 z M 342.21875 377.4375 L 342.21875 387.625 L 347.3125 387.625 L 347.3125 377.4375 L 342.21875 377.4375 z M 352.4375 362.15625 L 352.4375 387.625 L 367.71875 387.625 L 367.71875 382.53125 L 357.53125 382.53125 L 357.53125 377.4375 L 367.71875 377.4375 L 367.71875 372.34375 L 357.53125 372.34375 L 357.53125 367.25 L 367.71875 367.25 L 367.71875 362.15625 L 352.4375 362.15625 z M 393.25 362.15625 L 393.25 377.4375 L 398.34375 377.4375 L 398.34375 387.625 L 403.4375 387.625 L 403.4375 377.4375 L 408.53125 377.4375 L 408.53125 362.15625 L 403.4375 362.15625 L 403.4375 372.34375 L 398.34375 372.34375 L 398.34375 362.15625 L 393.25 362.15625 z M 413.65625 362.15625 L 413.65625 387.625 L 428.9375 387.625 L 428.9375 362.15625 L 413.65625 362.15625 z M 434.03125 362.15625 L 434.03125 387.625 L 449.34375 387.625 L 449.34375 362.15625 L 444.25 362.15625 L 444.25 382.53125 L 439.125 382.53125 L 439.125 362.15625 L 434.03125 362.15625 z M 454.4375 362.15625 L 454.4375 387.625 L 459.53125 387.625 L 459.53125 377.4375 L 464.625 377.4375 L 464.625 372.34375 L 459.53125 372.34375 L 459.53125 367.25 L 464.625 367.25 L 464.625 372.34375 L 469.75 372.34375 L 469.75 362.15625 L 454.4375 362.15625 z M 464.625 377.4375 L 464.625 387.625 L 469.75 387.625 L 469.75 377.4375 L 464.625 377.4375 z M 495.25 362.15625 L 495.25 387.625 L 500.34375 387.625 L 500.34375 377.4375 L 505.4375 377.4375 L 505.4375 387.625 L 510.53125 387.625 L 510.53125 362.15625 L 495.25 362.15625 z M 515.65625 362.15625 L 515.65625 382.53125 L 520.75 382.53125 L 520.75 362.15625 L 515.65625 362.15625 z M 520.75 382.53125 L 520.75 387.625 L 525.84375 387.625 L 525.84375 382.53125 L 520.75 382.53125 z M 525.84375 382.53125 L 530.9375 382.53125 L 530.9375 362.15625 L 525.84375 362.15625 L 525.84375 382.53125 z M 536.0625 362.15625 L 536.0625 387.625 L 541.15625 387.625 L 541.15625 377.4375 L 546.25 377.4375 L 546.25 387.625 L 551.34375 387.625 L 551.34375 362.15625 L 536.0625 362.15625 z M 556.46875 362.15625 L 556.46875 367.25 L 561.5625 367.25 L 561.5625 387.625 L 566.65625 387.625 L 566.65625 367.25 L 571.75 367.25 L 571.75 362.15625 L 556.46875 362.15625 z M 576.875 362.15625 L 576.875 387.625 L 581.96875 387.625 L 581.96875 377.4375 L 587.0625 377.4375 L 587.0625 387.625 L 592.15625 387.625 L 592.15625 362.15625 L 576.875 362.15625 z M 597.28125 362.15625 L 597.28125 387.625 L 602.375 387.625 L 602.375 377.4375 L 607.46875 377.4375 L 607.46875 372.34375 L 602.375 372.34375 L 602.375 367.25 L 607.46875 367.25 L 607.46875 372.34375 L 612.5625 372.34375 L 612.5625 362.15625 L 597.28125 362.15625 z M 607.46875 377.4375 L 607.46875 387.625 L 612.5625 387.625 L 612.5625 377.4375 L 607.46875 377.4375 z M 638.09375 362.15625 L 638.09375 387.625 L 643.1875 387.625 L 643.1875 377.4375 L 648.28125 377.4375 L 648.28125 387.625 L 653.375 387.625 L 653.375 362.15625 L 648.28125 362.15625 L 648.28125 372.34375 L 643.1875 372.34375 L 643.1875 362.15625 L 638.09375 362.15625 z M 658.5 362.15625 L 658.5 387.625 L 673.78125 387.625 L 673.78125 382.53125 L 663.59375 382.53125 L 663.59375 377.4375 L 673.78125 377.4375 L 673.78125 372.34375 L 663.59375 372.34375 L 663.59375 367.25 L 673.78125 367.25 L 673.78125 362.15625 L 658.5 362.15625 z M 678.875 362.15625 L 678.875 387.625 L 684 387.625 L 684 377.4375 L 689.09375 377.4375 L 689.09375 372.34375 L 684 372.34375 L 684 367.25 L 689.09375 367.25 L 689.09375 372.34375 L 694.1875 372.34375 L 694.1875 362.15625 L 678.875 362.15625 z M 689.09375 377.4375 L 689.09375 387.625 L 694.1875 387.625 L 694.1875 377.4375 L 689.09375 377.4375 z M 699.28125 362.15625 L 699.28125 387.625 L 714.59375 387.625 L 714.59375 382.53125 L 704.375 382.53125 L 704.375 377.4375 L 714.59375 377.4375 L 714.59375 372.34375 L 704.375 372.34375 L 704.375 367.25 L 714.59375 367.25 L 714.59375 362.15625 L 699.28125 362.15625 z M 719.6875 362.15625 L 719.6875 377.4375 L 724.78125 377.4375 L 724.78125 362.15625 L 719.6875 362.15625 z M 729.84375 362.15625 L 729.84375 377.4375 L 734.9375 377.4375 L 734.9375 362.15625 L 729.84375 362.15625 z M 740 362.15625 L 740 377.4375 L 745.09375 377.4375 L 745.09375 362.15625 L 740 362.15625 z M 316.71875 367.25 L 321.8125 367.25 L 321.8125 372.34375 L 316.71875 372.34375 L 316.71875 367.25 z M 418.75 367.25 L 423.84375 367.25 L 423.84375 382.53125 L 418.75 382.53125 L 418.75 367.25 z M 500.34375 367.25 L 505.4375 367.25 L 505.4375 372.34375 L 500.34375 372.34375 L 500.34375 367.25 z M 541.15625 367.25 L 546.25 367.25 L 546.25 372.34375 L 541.15625 372.34375 L 541.15625 367.25 z M 581.96875 367.25 L 587.0625 367.25 L 587.0625 372.34375 L 581.96875 372.34375 L 581.96875 367.25 z M 719.6875 382.53125 L 719.6875 387.625 L 724.78125 387.625 L 724.78125 382.53125 L 719.6875 382.53125 z M 729.84375 382.53125 L 729.84375 387.625 L 734.9375 387.625 L 734.9375 382.53125 L 729.84375 382.53125 z M 740 382.53125 L 740 387.625 L 745.09375 387.625 L 745.09375 382.53125 L 740 382.53125 z "
       transform="translate(0,308.2677)"
       id="text3005" />
    <text
       sodipodi:linespacing="125%"
       id="text3013"
       y="696.78851"
       x="95.964485"
       style="font-size:22px;font-style:italic;font-variant:normal;font-weight:bold;font-stretch:normal;text-align:center;line-height:125%;letter-spacing:0px;word-spacing:0px;writing-mode:lr-tb;text-anchor:middle;fill:#000000;fill-opacity:1;stroke:none;font-family:Liberation Serif;-inkscape-font-specification:Liberation Serif Bold Italic"
       xml:space="preserve"><tspan
         y="696.78851"
         x="95.964485"
         id="tspan3015"
         sodipodi:role="line">30cm, 2x</tspan></text>
    <text
       xml:space="preserve"
       style="font-size:22px;font-style:italic;font-variant:normal;font-weight:bold;font-stretch:normal;text-align:center;line-height:125%;letter-spacing:0px;word-spacing:0px;writing-mode:lr-tb;text-anchor:middle;fill:#000000;fill-opacity:1;stroke:none;font-family:Liberation Serif;-inkscape-font-specification:Liberation Serif Bold Italic"
       x="301.96448"
       y="968.87994"
       id="text3017"
       sodipodi:linespacing="125%"><tspan
         sodipodi:role="line"
         id="tspan3019"
         x="301.96448"
         y="968.87994">4,5cm x 4,5cm, 4x</tspan></text>
    <rect
       style="fill:#000000;fill-opacity:1;stroke:none"
       id="rect3038"
       width="96.974648"
       height="96.974648"
       x="294.96454"
       y="841.2403"
       ry="0" />
    <path
       style="font-size:50.95978546px;font-style:normal;font-variant:normal;font-weight:bold;font-stretch:normal;text-align:center;line-height:125%;letter-spacing:0px;word-spacing:0px;writing-mode:lr-tb;text-anchor:middle;fill:#ffffff;fill-opacity:1;stroke:none;font-family:Ernest;-inkscape-font-specification:Ernest Bold"
       d="M 322.96875 542.96875 L 322.96875 558.59375 L 338.5625 558.59375 L 338.5625 542.96875 L 322.96875 542.96875 z M 338.5625 558.59375 L 338.5625 574.1875 L 354.15625 574.1875 L 354.15625 558.59375 L 338.5625 558.59375 z M 354.15625 574.1875 L 354.15625 589.78125 L 369.75 589.78125 L 369.75 574.1875 L 354.15625 574.1875 z M 354.15625 589.78125 L 338.5625 589.78125 L 338.5625 605.375 L 354.15625 605.375 L 354.15625 589.78125 z M 338.5625 605.375 L 322.96875 605.375 L 322.96875 620.96875 L 338.5625 620.96875 L 338.5625 605.375 z "
       transform="translate(0,308.2677)"
       id="text3021" />
    <flowRoot
       xml:space="preserve"
       id="flowRoot3030"
       style="fill:black;stroke:none;stroke-opacity:1;stroke-width:1px;stroke-linejoin:miter;stroke-linecap:butt;fill-opacity:1;font-family:Liberation Serif;font-style:italic;font-weight:bold;font-size:22px;text-anchor:middle;text-align:center;writing-mode:lr;line-height:125%;-inkscape-font-specification:Liberation Serif Bold Italic;font-stretch:normal;font-variant:normal;letter-spacing:0px;word-spacing:0px"><flowRegion
         id="flowRegion3032"><rect
           id="rect3034"
           width="223.24371"
           height="326.27927"
           x="-204.05081"
           y="175.3786" /></flowRegion><flowPara
         id="flowPara3036" /></flowRoot>    <path
       style="font-size:49.39950943px;font-style:normal;font-variant:normal;font-weight:bold;font-stretch:normal;text-align:center;line-height:125%;letter-spacing:0px;word-spacing:0px;writing-mode:lr-tb;text-anchor:middle;fill:#000000;fill-opacity:1;stroke:none;font-family:Ernest;-inkscape-font-specification:Ernest Bold"
       d="M 487.09375 531.25 L 487.09375 555.9375 L 492.03125 555.9375 L 492.03125 546.0625 L 501.9375 546.0625 L 501.9375 531.25 L 487.09375 531.25 z M 506.875 531.25 L 506.875 555.9375 L 521.71875 555.9375 L 521.71875 551 L 511.8125 551 L 511.8125 531.25 L 506.875 531.25 z M 526.65625 531.25 L 526.65625 555.9375 L 531.59375 555.9375 L 531.59375 546.0625 L 536.53125 546.0625 L 536.53125 555.9375 L 541.46875 555.9375 L 541.46875 531.25 L 526.65625 531.25 z M 546.4375 531.25 L 546.4375 555.9375 L 561.25 555.9375 L 561.25 546.0625 L 556.3125 546.0625 L 556.3125 551 L 551.375 551 L 551.375 536.1875 L 556.3125 536.1875 L 556.3125 541.125 L 561.25 541.125 L 561.25 531.25 L 546.4375 531.25 z M 566.21875 531.25 L 566.21875 555.9375 L 581.03125 555.9375 L 581.03125 551 L 571.15625 551 L 571.15625 546.0625 L 581.03125 546.0625 L 581.03125 541.125 L 571.15625 541.125 L 571.15625 536.1875 L 581.03125 536.1875 L 581.03125 531.25 L 566.21875 531.25 z M 605.78125 531.25 L 605.78125 546.0625 L 610.71875 546.0625 L 610.71875 555.9375 L 615.65625 555.9375 L 615.65625 546.0625 L 620.59375 546.0625 L 620.59375 531.25 L 615.65625 531.25 L 615.65625 541.125 L 610.71875 541.125 L 610.71875 531.25 L 605.78125 531.25 z M 625.5625 531.25 L 625.5625 555.9375 L 640.375 555.9375 L 640.375 531.25 L 625.5625 531.25 z M 645.34375 531.25 L 645.34375 555.9375 L 660.15625 555.9375 L 660.15625 531.25 L 655.21875 531.25 L 655.21875 551 L 650.28125 551 L 650.28125 531.25 L 645.34375 531.25 z M 665.125 531.25 L 665.125 555.9375 L 670.0625 555.9375 L 670.0625 546.0625 L 675 546.0625 L 675 541.125 L 670.0625 541.125 L 670.0625 536.1875 L 675 536.1875 L 675 541.125 L 679.9375 541.125 L 679.9375 531.25 L 665.125 531.25 z M 675 546.0625 L 675 555.9375 L 679.9375 555.9375 L 679.9375 546.0625 L 675 546.0625 z M 704.6875 531.25 L 704.6875 555.9375 L 709.625 555.9375 L 709.625 531.25 L 704.6875 531.25 z M 714.53125 531.25 L 714.53125 555.9375 L 719.46875 555.9375 L 719.46875 546.0625 L 724.40625 546.0625 L 724.40625 541.125 L 719.46875 541.125 L 719.46875 531.25 L 714.53125 531.25 z M 724.40625 541.125 L 729.34375 541.125 L 729.34375 531.25 L 724.40625 531.25 L 724.40625 541.125 z M 724.40625 546.0625 L 724.40625 555.9375 L 729.34375 555.9375 L 729.34375 546.0625 L 724.40625 546.0625 z M 734.28125 531.25 L 734.28125 536.1875 L 739.25 536.1875 L 739.25 555.9375 L 744.1875 555.9375 L 744.1875 536.1875 L 749.125 536.1875 L 749.125 531.25 L 734.28125 531.25 z M 754.0625 531.25 L 754.0625 555.9375 L 759 555.9375 L 759 546.0625 L 763.96875 546.0625 L 763.96875 555.9375 L 768.90625 555.9375 L 768.90625 531.25 L 754.0625 531.25 z M 773.84375 531.25 L 773.84375 555.9375 L 788.6875 555.9375 L 788.6875 541.125 L 778.78125 541.125 L 778.78125 536.1875 L 788.6875 536.1875 L 788.6875 531.25 L 773.84375 531.25 z M 813.40625 531.25 L 813.40625 536.1875 L 818.34375 536.1875 L 818.34375 555.9375 L 823.28125 555.9375 L 823.28125 536.1875 L 828.21875 536.1875 L 828.21875 531.25 L 813.40625 531.25 z M 833.1875 531.25 L 833.1875 555.9375 L 848 555.9375 L 848 531.25 L 833.1875 531.25 z M 872.75 531.25 L 872.75 546.0625 L 882.625 546.0625 L 882.625 551 L 872.75 551 L 872.75 555.9375 L 887.5625 555.9375 L 887.5625 541.125 L 877.6875 541.125 L 877.6875 536.1875 L 887.5625 536.1875 L 887.5625 531.25 L 872.75 531.25 z M 892.53125 531.25 L 892.53125 536.1875 L 897.46875 536.1875 L 897.46875 555.9375 L 902.40625 555.9375 L 902.40625 536.1875 L 907.34375 536.1875 L 907.34375 531.25 L 892.53125 531.25 z M 912.3125 531.25 L 912.3125 555.9375 L 917.25 555.9375 L 917.25 546.0625 L 922.1875 546.0625 L 922.1875 555.9375 L 927.125 555.9375 L 927.125 531.25 L 912.3125 531.25 z M 932.09375 531.25 L 932.09375 555.9375 L 937.03125 555.9375 L 937.03125 546.0625 L 941.96875 546.0625 L 941.96875 541.125 L 937.03125 541.125 L 937.03125 536.1875 L 941.96875 536.1875 L 941.96875 541.125 L 946.90625 541.125 L 946.90625 531.25 L 932.09375 531.25 z M 941.96875 546.0625 L 941.96875 555.9375 L 946.90625 555.9375 L 946.90625 546.0625 L 941.96875 546.0625 z M 951.875 531.25 L 951.875 536.1875 L 956.8125 536.1875 L 956.8125 555.9375 L 961.75 555.9375 L 961.75 536.1875 L 966.6875 536.1875 L 966.6875 531.25 L 951.875 531.25 z M 492.03125 536.1875 L 497 536.1875 L 497 541.125 L 492.03125 541.125 L 492.03125 536.1875 z M 531.59375 536.1875 L 536.53125 536.1875 L 536.53125 541.125 L 531.59375 541.125 L 531.59375 536.1875 z M 630.5 536.1875 L 635.4375 536.1875 L 635.4375 551 L 630.5 551 L 630.5 536.1875 z M 759 536.1875 L 763.96875 536.1875 L 763.96875 541.125 L 759 541.125 L 759 536.1875 z M 838.125 536.1875 L 843.0625 536.1875 L 843.0625 551 L 838.125 551 L 838.125 536.1875 z M 917.25 536.1875 L 922.1875 536.1875 L 922.1875 541.125 L 917.25 541.125 L 917.25 536.1875 z M 778.78125 546.0625 L 783.71875 546.0625 L 783.71875 551 L 778.78125 551 L 778.78125 546.0625 z "
       transform="translate(0,308.2677)"
       id="text3048" />
    <text
       xml:space="preserve"
       style="font-size:22px;font-style:italic;font-variant:normal;font-weight:bold;font-stretch:normal;text-align:center;line-height:125%;letter-spacing:0px;word-spacing:0px;writing-mode:lr-tb;text-anchor:middle;fill:#000000;fill-opacity:1;stroke:none;font-family:Liberation Serif;-inkscape-font-specification:Liberation Serif Bold Italic"
       x="524.96448"
       y="953.78851"
       id="text3052"
       sodipodi:linespacing="125%"><tspan
         sodipodi:role="line"
         id="tspan3054"
         x="524.96448"
         y="953.78851">30cm, 1x</tspan></text>
    <path
       style="font-size:50.42743683px;font-style:normal;font-variant:normal;font-weight:normal;font-stretch:normal;text-align:center;line-height:125%;letter-spacing:0px;word-spacing:0px;writing-mode:lr-tb;text-anchor:middle;fill:#000000;fill-opacity:1;stroke:none;font-family:Ernest;-inkscape-font-specification:Ernest"
       d="M 100.96875 72.25 L 100.96875 107.5625 L 136.28125 107.5625 L 136.28125 72.25 L 100.96875 72.25 z M 141.34375 72.25 L 141.34375 107.5625 L 166.5625 107.5625 L 166.5625 72.25 L 141.34375 72.25 z M 171.59375 72.25 L 171.59375 107.5625 L 196.8125 107.5625 L 196.8125 92.46875 L 186.71875 92.46875 L 186.71875 72.25 L 171.59375 72.25 z M 201.8125 72.25 L 201.8125 87.375 L 206.875 87.375 L 206.875 107.5625 L 222 107.5625 L 222 87.375 L 227.03125 87.375 L 227.03125 72.25 L 201.8125 72.25 z M 232.0625 72.25 L 232.0625 107.5625 L 247.1875 107.5625 L 247.1875 72.25 L 232.0625 72.25 z M 282.5 72.25 L 282.5 87.375 L 287.53125 87.375 L 287.53125 107.5625 L 302.65625 107.5625 L 302.65625 87.375 L 307.6875 87.375 L 307.6875 72.25 L 282.5 72.25 z M 312.71875 72.25 L 312.71875 107.5625 L 337.9375 107.5625 L 337.9375 72.25 L 312.71875 72.25 z M 342.96875 72.25 L 342.96875 107.5625 L 368.1875 107.5625 L 368.1875 72.25 L 342.96875 72.25 z M 373.1875 72.25 L 373.1875 107.5625 L 398.40625 107.5625 L 398.40625 72.25 L 373.1875 72.25 z M 403.4375 72.25 L 403.4375 107.5625 L 428.65625 107.5625 L 428.65625 72.25 L 403.4375 72.25 z M 433.65625 72.25 L 433.65625 107.5625 L 453.84375 107.5625 L 453.84375 102.53125 L 458.875 102.53125 L 458.875 77.3125 L 453.84375 77.3125 L 453.84375 72.25 L 433.65625 72.25 z M 463.90625 72.25 L 463.90625 107.5625 L 489.125 107.5625 L 489.125 72.25 L 463.90625 72.25 z M 494.15625 72.25 L 494.15625 107.5625 L 514.3125 107.5625 L 514.3125 102.53125 L 519.34375 102.53125 L 519.34375 77.3125 L 514.3125 77.3125 L 514.3125 72.25 L 494.15625 72.25 z M 554.625 72.25 L 554.625 107.5625 L 579.84375 107.5625 L 579.84375 72.25 L 554.625 72.25 z M 584.84375 72.25 L 584.84375 107.5625 L 610.0625 107.5625 L 610.0625 72.25 L 584.84375 72.25 z M 615.09375 72.25 L 615.09375 107.5625 L 640.3125 107.5625 L 640.3125 72.25 L 615.09375 72.25 z M 655.40625 72.25 L 655.40625 87.375 L 645.3125 87.375 L 645.3125 107.5625 L 670.53125 107.5625 L 670.53125 72.25 L 655.40625 72.25 z M 675.5625 72.25 L 675.5625 107.5625 L 700.78125 107.5625 L 700.78125 72.25 L 675.5625 72.25 z M 736.03125 72.25 L 736.03125 107.5625 L 756.21875 107.5625 L 756.21875 102.53125 L 761.25 102.53125 L 761.25 77.3125 L 756.21875 77.3125 L 756.21875 72.25 L 736.03125 72.25 z M 766.28125 72.25 L 766.28125 107.5625 L 781.40625 107.5625 L 781.40625 72.25 L 766.28125 72.25 z M 786.46875 72.25 L 786.46875 107.5625 L 811.6875 107.5625 L 811.6875 72.25 L 786.46875 72.25 z M 816.6875 72.25 L 816.6875 107.5625 L 841.90625 107.5625 L 841.90625 72.25 L 816.6875 72.25 z M 846.9375 72.25 L 846.9375 107.5625 L 872.15625 107.5625 L 872.15625 72.25 L 846.9375 72.25 z M 877.1875 72.25 L 877.1875 107.5625 L 902.375 107.5625 L 902.375 72.25 L 877.1875 72.25 z M 907.40625 72.25 L 907.40625 107.5625 L 932.625 107.5625 L 932.625 72.25 L 907.40625 72.25 z M 937.65625 72.25 L 937.65625 107.5625 L 962.875 107.5625 L 962.875 72.25 L 937.65625 72.25 z M 106 77.3125 L 131.21875 77.3125 L 131.21875 102.53125 L 126.1875 102.53125 L 126.1875 82.34375 L 121.125 82.34375 L 121.125 102.53125 L 116.09375 102.53125 L 116.09375 82.34375 L 111.0625 82.34375 L 111.0625 102.53125 L 106 102.53125 L 106 77.3125 z M 146.40625 77.3125 L 151.4375 77.3125 L 151.4375 97.46875 L 156.46875 97.46875 L 156.46875 77.3125 L 161.53125 77.3125 L 161.53125 102.53125 L 146.40625 102.53125 L 146.40625 77.3125 z M 176.625 77.3125 L 181.65625 77.3125 L 181.65625 97.46875 L 191.75 97.46875 L 191.75 102.53125 L 176.625 102.53125 L 176.625 77.3125 z M 206.875 77.3125 L 222 77.3125 L 222 82.34375 L 216.9375 82.34375 L 216.9375 102.53125 L 211.90625 102.53125 L 211.90625 82.40625 L 206.875 82.40625 L 206.875 77.3125 z M 237.09375 77.3125 L 242.15625 77.3125 L 242.15625 102.53125 L 237.09375 102.53125 L 237.09375 77.3125 z M 287.53125 77.3125 L 302.65625 77.3125 L 302.65625 82.34375 L 297.625 82.34375 L 297.625 102.53125 L 292.5625 102.53125 L 292.5625 82.40625 L 287.53125 82.40625 L 287.53125 77.3125 z M 317.78125 77.3125 L 322.8125 77.3125 L 322.8125 87.375 L 327.84375 87.375 L 327.84375 77.3125 L 332.90625 77.3125 L 332.90625 102.53125 L 327.84375 102.53125 L 327.84375 92.4375 L 322.8125 92.4375 L 322.8125 102.53125 L 317.78125 102.53125 L 317.78125 77.3125 z M 348 77.3125 L 363.125 77.3125 L 363.125 87.4375 L 358.09375 87.4375 L 358.09375 92.4375 L 353.03125 92.4375 L 353.03125 102.53125 L 348 102.53125 L 348 77.3125 z M 378.25 77.3125 L 393.375 77.3125 L 393.375 82.34375 L 383.28125 82.34375 L 383.28125 87.375 L 393.375 87.375 L 393.375 92.4375 L 385.1875 92.4375 L 385.1875 92.46875 L 383.28125 92.46875 L 383.28125 97.53125 L 393.375 97.53125 L 393.375 102.53125 L 378.25 102.53125 L 378.25 77.3125 z M 408.46875 77.3125 L 423.59375 77.3125 L 423.59375 102.53125 L 418.5625 102.53125 L 418.5625 92.4375 L 413.53125 92.4375 L 413.53125 102.53125 L 408.46875 102.53125 L 408.46875 77.3125 z M 438.71875 77.3125 L 448.8125 77.3125 L 448.8125 82.34375 L 453.84375 82.34375 L 453.84375 97.46875 L 448.8125 97.46875 L 448.8125 102.53125 L 438.71875 102.53125 L 438.71875 77.3125 z M 448.8125 97.46875 L 448.8125 82.34375 L 443.75 82.34375 L 443.75 97.46875 L 448.8125 97.46875 z M 468.9375 77.3125 L 484.09375 77.3125 L 484.09375 82.34375 L 474 82.34375 L 474 87.375 L 484.09375 87.375 L 484.09375 92.4375 L 475.90625 92.4375 L 475.90625 92.46875 L 474 92.46875 L 474 97.53125 L 484.09375 97.53125 L 484.09375 102.53125 L 468.9375 102.53125 L 468.9375 77.3125 z M 499.1875 77.3125 L 509.28125 77.3125 L 509.28125 82.34375 L 514.3125 82.34375 L 514.3125 97.46875 L 509.28125 97.46875 L 509.28125 102.53125 L 499.1875 102.53125 L 499.1875 77.3125 z M 509.28125 97.46875 L 509.28125 82.34375 L 504.21875 82.34375 L 504.21875 97.46875 L 509.28125 97.46875 z M 559.65625 77.3125 L 574.78125 77.3125 L 574.78125 87.375 L 569.75 87.375 L 569.75 92.4375 L 574.78125 92.4375 L 574.78125 102.53125 L 559.65625 102.53125 L 559.65625 77.3125 z M 569.75 92.4375 L 564.6875 92.4375 L 564.6875 97.46875 L 569.75 97.46875 L 569.75 92.4375 z M 569.75 87.375 L 569.75 82.34375 L 564.6875 82.34375 L 564.6875 87.375 L 569.75 87.375 z M 589.90625 77.3125 L 605.03125 77.3125 L 605.03125 102.53125 L 599.96875 102.53125 L 599.96875 92.4375 L 594.9375 92.4375 L 594.9375 102.53125 L 589.90625 102.53125 L 589.90625 77.3125 z M 620.125 77.3125 L 635.25 77.3125 L 635.25 102.53125 L 630.21875 102.53125 L 630.21875 82.34375 L 625.1875 82.34375 L 625.1875 102.53125 L 620.125 102.53125 L 620.125 77.3125 z M 660.46875 77.3125 L 665.5 77.3125 L 665.5 102.53125 L 650.375 102.53125 L 650.375 92.4375 L 655.40625 92.4375 L 655.40625 97.46875 L 660.46875 97.46875 L 660.46875 77.3125 z M 680.59375 77.3125 L 695.75 77.3125 L 695.75 102.53125 L 680.59375 102.53125 L 680.59375 77.3125 z M 741.09375 77.3125 L 751.15625 77.3125 L 751.15625 82.34375 L 756.21875 82.34375 L 756.21875 97.46875 L 751.15625 97.46875 L 751.15625 102.53125 L 741.09375 102.53125 L 741.09375 77.3125 z M 751.15625 97.46875 L 751.15625 82.34375 L 746.125 82.34375 L 746.125 97.46875 L 751.15625 97.46875 z M 771.3125 77.3125 L 776.375 77.3125 L 776.375 102.53125 L 771.3125 102.53125 L 771.3125 77.3125 z M 791.5 77.3125 L 806.625 77.3125 L 806.625 102.53125 L 801.59375 102.53125 L 801.59375 82.34375 L 796.5625 82.34375 L 796.5625 102.53125 L 791.5 102.53125 L 791.5 77.3125 z M 821.75 77.3125 L 836.875 77.3125 L 836.875 102.53125 L 821.75 102.53125 L 821.75 77.3125 z M 851.96875 77.3125 L 867.125 77.3125 L 867.125 82.34375 L 857.03125 82.34375 L 857.03125 87.375 L 867.125 87.375 L 867.125 102.53125 L 851.96875 102.53125 L 851.96875 97.46875 L 862.0625 97.46875 L 862.0625 92.4375 L 851.96875 92.4375 L 851.96875 77.3125 z M 882.21875 77.3125 L 897.34375 77.3125 L 897.34375 102.53125 L 892.3125 102.53125 L 892.3125 92.4375 L 887.25 92.4375 L 887.25 102.53125 L 882.21875 102.53125 L 882.21875 77.3125 z M 912.46875 77.3125 L 917.5 77.3125 L 917.5 97.46875 L 922.53125 97.46875 L 922.53125 77.3125 L 927.59375 77.3125 L 927.59375 102.53125 L 912.46875 102.53125 L 912.46875 77.3125 z M 942.6875 77.3125 L 957.8125 77.3125 L 957.8125 87.4375 L 952.78125 87.4375 L 952.78125 92.4375 L 947.75 92.4375 L 947.75 102.53125 L 942.6875 102.53125 L 942.6875 77.3125 z M 252.25 82.34375 L 252.25 97.53125 L 277.46875 97.53125 L 277.46875 82.34375 L 252.25 82.34375 z M 353.03125 82.34375 L 353.03125 87.375 L 358.09375 87.375 L 358.09375 82.34375 L 353.03125 82.34375 z M 413.53125 82.34375 L 413.53125 87.375 L 418.5625 87.375 L 418.5625 82.34375 L 413.53125 82.34375 z M 594.9375 82.34375 L 594.9375 87.375 L 599.96875 87.375 L 599.96875 82.34375 L 594.9375 82.34375 z M 685.65625 82.34375 L 685.65625 97.46875 L 690.6875 97.46875 L 690.6875 82.34375 L 685.65625 82.34375 z M 826.78125 82.34375 L 826.78125 97.46875 L 831.84375 97.46875 L 831.84375 82.34375 L 826.78125 82.34375 z M 887.25 82.34375 L 887.25 87.375 L 892.3125 87.375 L 892.3125 82.34375 L 887.25 82.34375 z M 947.75 82.34375 L 947.75 87.375 L 952.78125 87.375 L 952.78125 82.34375 L 947.75 82.34375 z M 257.28125 87.375 L 272.40625 87.375 L 272.40625 92.4375 L 257.28125 92.4375 L 257.28125 87.375 z M 358.09375 92.875 L 363.125 92.875 L 363.125 102.53125 L 358.09375 102.53125 L 358.09375 92.875 z M 952.78125 92.875 L 957.8125 92.875 L 957.8125 102.53125 L 952.78125 102.53125 L 952.78125 92.875 z M 70.6875 135.28125 L 70.6875 170.59375 L 95.90625 170.59375 L 95.90625 135.28125 L 70.6875 135.28125 z M 100.90625 135.28125 L 100.90625 170.59375 L 126.125 170.59375 L 126.125 135.28125 L 100.90625 135.28125 z M 131.15625 135.28125 L 131.15625 170.59375 L 146.28125 170.59375 L 146.28125 135.28125 L 131.15625 135.28125 z M 151.34375 135.28125 L 151.34375 150.4375 L 156.375 150.4375 L 156.375 170.59375 L 171.53125 170.59375 L 171.53125 150.4375 L 176.5625 150.4375 L 176.5625 135.28125 L 151.34375 135.28125 z M 181.59375 135.28125 L 181.59375 150.4375 L 186.625 150.4375 L 186.625 170.59375 L 201.75 170.59375 L 201.75 150.4375 L 206.78125 150.4375 L 206.78125 135.28125 L 181.59375 135.28125 z M 211.8125 135.28125 L 211.8125 170.59375 L 226.9375 170.59375 L 226.9375 135.28125 L 211.8125 135.28125 z M 232 135.28125 L 232 170.59375 L 257.21875 170.59375 L 257.21875 135.28125 L 232 135.28125 z M 262.25 135.28125 L 262.25 170.59375 L 287.46875 170.59375 L 287.46875 135.28125 L 262.25 135.28125 z M 322.71875 135.28125 L 322.71875 170.59375 L 347.9375 170.59375 L 347.9375 135.28125 L 322.71875 135.28125 z M 352.96875 135.28125 L 352.96875 170.59375 L 373.125 170.59375 L 373.125 165.5625 L 378.15625 165.5625 L 378.15625 140.34375 L 373.125 140.34375 L 373.125 135.28125 L 352.96875 135.28125 z M 383.1875 135.28125 L 383.1875 165.5625 L 388.25 165.5625 L 388.25 170.59375 L 403.375 170.59375 L 403.375 165.5625 L 408.40625 165.5625 L 408.40625 135.28125 L 383.1875 135.28125 z M 413.4375 135.28125 L 413.4375 170.59375 L 438.65625 170.59375 L 438.65625 135.28125 L 413.4375 135.28125 z M 443.65625 135.28125 L 443.65625 170.59375 L 468.875 170.59375 L 468.875 135.28125 L 443.65625 135.28125 z M 473.90625 135.28125 L 473.90625 150.4375 L 478.9375 150.4375 L 478.9375 170.59375 L 494.0625 170.59375 L 494.0625 150.4375 L 499.125 150.4375 L 499.125 135.28125 L 473.90625 135.28125 z M 504.15625 135.28125 L 504.15625 170.59375 L 529.34375 170.59375 L 529.34375 135.28125 L 504.15625 135.28125 z M 534.375 135.28125 L 534.375 170.59375 L 559.59375 170.59375 L 559.59375 135.28125 L 534.375 135.28125 z M 564.625 135.28125 L 564.625 170.59375 L 589.84375 170.59375 L 589.84375 135.28125 L 564.625 135.28125 z M 625.09375 135.28125 L 625.09375 170.59375 L 650.3125 170.59375 L 650.3125 140.34375 L 645.25 140.34375 L 645.25 135.28125 L 625.09375 135.28125 z M 655.3125 135.28125 L 655.3125 170.59375 L 675.5 170.59375 L 675.5 165.5625 L 680.53125 165.5625 L 680.53125 140.34375 L 675.5 140.34375 L 675.5 135.28125 L 655.3125 135.28125 z M 715.8125 135.28125 L 715.8125 170.59375 L 741 170.59375 L 741 135.28125 L 715.8125 135.28125 z M 746.03125 135.28125 L 746.03125 170.59375 L 771.25 170.59375 L 771.25 135.28125 L 746.03125 135.28125 z M 776.28125 135.28125 L 776.28125 150.4375 L 781.3125 150.4375 L 781.3125 170.59375 L 796.4375 170.59375 L 796.4375 150.4375 L 801.5 150.4375 L 801.5 135.28125 L 776.28125 135.28125 z M 806.5 135.28125 L 806.5 170.59375 L 831.71875 170.59375 L 831.71875 135.28125 L 806.5 135.28125 z M 836.75 135.28125 L 836.75 170.59375 L 861.96875 170.59375 L 861.96875 135.28125 L 836.75 135.28125 z M 866.96875 135.28125 L 866.96875 170.59375 L 902.28125 170.59375 L 902.28125 135.28125 L 866.96875 135.28125 z M 907.375 135.28125 L 907.375 170.59375 L 932.5625 170.59375 L 932.5625 135.28125 L 907.375 135.28125 z M 937.59375 135.28125 L 937.59375 170.59375 L 952.71875 170.59375 L 952.71875 135.28125 L 937.59375 135.28125 z M 957.78125 135.28125 L 957.78125 170.59375 L 972.90625 170.59375 L 972.90625 135.28125 L 957.78125 135.28125 z M 977.96875 135.28125 L 977.96875 170.59375 L 993.125 170.59375 L 993.125 135.28125 L 977.96875 135.28125 z M 75.71875 140.34375 L 80.78125 140.34375 L 80.78125 150.4375 L 85.8125 150.4375 L 85.8125 140.34375 L 90.84375 140.34375 L 90.84375 150.4375 L 85.8125 150.4375 L 85.8125 155.46875 L 90.84375 155.46875 L 90.84375 165.5625 L 85.8125 165.5625 L 85.8125 155.46875 L 80.78125 155.46875 L 80.78125 165.5625 L 75.71875 165.5625 L 75.71875 140.34375 z M 105.96875 140.34375 L 121.09375 140.34375 L 121.09375 165.5625 L 116.03125 165.5625 L 116.03125 145.375 L 111 145.375 L 111 165.5625 L 105.96875 165.5625 L 105.96875 140.34375 z M 136.1875 140.34375 L 141.25 140.34375 L 141.25 165.5625 L 136.1875 165.5625 L 136.1875 140.34375 z M 156.375 140.34375 L 171.53125 140.34375 L 171.53125 145.375 L 166.46875 145.375 L 166.46875 165.5625 L 161.4375 165.5625 L 161.4375 145.4375 L 156.375 145.4375 L 156.375 140.34375 z M 186.625 140.34375 L 201.75 140.34375 L 201.75 145.375 L 196.71875 145.375 L 196.71875 165.5625 L 191.65625 165.5625 L 191.65625 145.4375 L 186.625 145.4375 L 186.625 140.34375 z M 216.875 140.34375 L 221.90625 140.34375 L 221.90625 165.5625 L 216.875 165.5625 L 216.875 140.34375 z M 237.0625 140.34375 L 252.1875 140.34375 L 252.1875 165.5625 L 247.125 165.5625 L 247.125 145.375 L 242.09375 145.375 L 242.09375 165.5625 L 237.0625 165.5625 L 237.0625 140.34375 z M 267.28125 140.34375 L 282.40625 140.34375 L 282.40625 145.375 L 272.34375 145.375 L 272.34375 150.4375 L 282.40625 150.4375 L 282.40625 165.5625 L 267.28125 165.5625 L 267.28125 140.34375 z M 327.75 140.34375 L 342.90625 140.34375 L 342.90625 165.5625 L 337.84375 165.5625 L 337.84375 155.46875 L 332.8125 155.46875 L 332.8125 165.5625 L 327.75 165.5625 L 327.75 140.34375 z M 358 140.34375 L 368.09375 140.34375 L 368.09375 145.375 L 373.125 145.375 L 373.125 160.5 L 368.09375 160.5 L 368.09375 165.5625 L 358 165.5625 L 358 140.34375 z M 368.09375 160.5 L 368.09375 145.375 L 363.03125 145.375 L 363.03125 160.5 L 368.09375 160.5 z M 388.25 140.34375 L 393.28125 140.34375 L 393.28125 160.5 L 398.3125 160.5 L 398.3125 140.34375 L 403.375 140.34375 L 403.375 160.5 L 398.3125 160.5 L 398.3125 165.5625 L 393.28125 165.5625 L 393.28125 160.5 L 388.25 160.5 L 388.25 140.34375 z M 418.46875 140.34375 L 433.59375 140.34375 L 433.59375 145.375 L 423.53125 145.375 L 423.53125 150.4375 L 433.59375 150.4375 L 433.59375 155.46875 L 425.4375 155.46875 L 425.4375 155.53125 L 423.53125 155.53125 L 423.53125 160.5625 L 433.59375 160.5625 L 433.59375 165.5625 L 418.46875 165.5625 L 418.46875 140.34375 z M 448.71875 140.34375 L 463.84375 140.34375 L 463.84375 165.5625 L 458.78125 165.5625 L 458.78125 145.375 L 453.75 145.375 L 453.75 165.5625 L 448.71875 165.5625 L 448.71875 140.34375 z M 478.9375 140.34375 L 494.0625 140.34375 L 494.0625 145.375 L 489.03125 145.375 L 489.03125 165.5625 L 484 165.5625 L 484 145.4375 L 478.9375 145.4375 L 478.9375 140.34375 z M 509.1875 140.34375 L 514.21875 140.34375 L 514.21875 160.5 L 519.28125 160.5 L 519.28125 140.34375 L 524.3125 140.34375 L 524.3125 165.5625 L 509.1875 165.5625 L 509.1875 140.34375 z M 539.40625 140.34375 L 554.5625 140.34375 L 554.5625 150.46875 L 549.5 150.46875 L 549.5 155.46875 L 544.46875 155.46875 L 544.46875 165.5625 L 539.40625 165.5625 L 539.40625 140.34375 z M 569.65625 140.34375 L 584.78125 140.34375 L 584.78125 145.375 L 574.6875 145.375 L 574.6875 150.4375 L 584.78125 150.4375 L 584.78125 155.46875 L 576.625 155.46875 L 576.625 155.53125 L 574.6875 155.53125 L 574.6875 160.5625 L 584.78125 160.5625 L 584.78125 165.5625 L 569.65625 165.5625 L 569.65625 140.34375 z M 630.125 140.34375 L 640.21875 140.34375 L 640.21875 145.375 L 645.25 145.375 L 645.25 150.4375 L 640.21875 150.4375 L 640.21875 155.46875 L 635.1875 155.46875 L 635.1875 160.5 L 645.25 160.5 L 645.25 165.5625 L 630.125 165.5625 L 630.125 155.46875 L 635.1875 155.46875 L 635.1875 150.4375 L 640.21875 150.4375 L 640.21875 145.375 L 630.125 145.375 L 630.125 140.34375 z M 660.375 140.34375 L 670.4375 140.34375 L 670.4375 145.375 L 675.5 145.375 L 675.5 160.5 L 670.4375 160.5 L 670.4375 165.5625 L 660.375 165.5625 L 660.375 140.34375 z M 670.4375 160.5 L 670.4375 145.375 L 665.40625 145.375 L 665.40625 160.5 L 670.4375 160.5 z M 720.84375 140.34375 L 735.96875 140.34375 L 735.96875 145.375 L 725.875 145.375 L 725.875 150.4375 L 735.96875 150.4375 L 735.96875 155.46875 L 727.8125 155.46875 L 727.8125 155.53125 L 725.875 155.53125 L 725.875 160.5625 L 735.96875 160.5625 L 735.96875 165.5625 L 720.84375 165.5625 L 720.84375 140.34375 z M 751.0625 140.34375 L 756.125 140.34375 L 756.125 150.4375 L 761.15625 150.4375 L 761.15625 140.34375 L 766.21875 140.34375 L 766.21875 150.4375 L 761.15625 150.4375 L 761.15625 155.46875 L 766.21875 155.46875 L 766.21875 165.5625 L 761.15625 165.5625 L 761.15625 155.46875 L 756.125 155.46875 L 756.125 165.5625 L 751.0625 165.5625 L 751.0625 155.46875 L 756.125 155.46875 L 756.125 150.4375 L 751.0625 150.4375 L 751.0625 140.34375 z M 781.3125 140.34375 L 796.4375 140.34375 L 796.4375 145.375 L 791.40625 145.375 L 791.40625 165.5625 L 786.34375 165.5625 L 786.34375 145.4375 L 781.3125 145.4375 L 781.3125 140.34375 z M 811.5625 140.34375 L 826.6875 140.34375 L 826.6875 150.46875 L 821.625 150.46875 L 821.625 155.46875 L 816.59375 155.46875 L 816.59375 165.5625 L 811.5625 165.5625 L 811.5625 140.34375 z M 841.78125 140.34375 L 856.90625 140.34375 L 856.90625 145.375 L 846.84375 145.375 L 846.84375 150.4375 L 856.90625 150.4375 L 856.90625 155.46875 L 848.75 155.46875 L 848.75 155.53125 L 846.84375 155.53125 L 846.84375 160.5625 L 856.90625 160.5625 L 856.90625 165.5625 L 841.78125 165.5625 L 841.78125 140.34375 z M 872.03125 140.34375 L 897.25 140.34375 L 897.25 165.5625 L 892.1875 165.5625 L 892.1875 145.375 L 887.15625 145.375 L 887.15625 165.5625 L 882.125 165.5625 L 882.125 145.375 L 877.0625 145.375 L 877.0625 165.5625 L 872.03125 165.5625 L 872.03125 140.34375 z M 912.40625 140.34375 L 927.53125 140.34375 L 927.53125 145.375 L 917.4375 145.375 L 917.4375 150.4375 L 927.53125 150.4375 L 927.53125 155.46875 L 919.375 155.46875 L 919.375 155.53125 L 917.4375 155.53125 L 917.4375 160.5625 L 927.53125 160.5625 L 927.53125 165.5625 L 912.40625 165.5625 L 912.40625 140.34375 z M 942.65625 140.34375 L 947.6875 140.34375 L 947.6875 155.46875 L 942.65625 155.46875 L 942.65625 140.34375 z M 962.84375 140.34375 L 967.875 140.34375 L 967.875 155.46875 L 962.84375 155.46875 L 962.84375 140.34375 z M 983.03125 140.34375 L 988.0625 140.34375 L 988.0625 155.46875 L 983.03125 155.46875 L 983.03125 140.34375 z M 332.8125 145.375 L 332.8125 150.4375 L 337.84375 150.4375 L 337.84375 145.375 L 332.8125 145.375 z M 544.46875 145.375 L 544.46875 150.4375 L 549.5 150.4375 L 549.5 145.375 L 544.46875 145.375 z M 816.59375 145.375 L 816.59375 150.4375 L 821.625 150.4375 L 821.625 145.375 L 816.59375 145.375 z M 272.34375 155.46875 L 272.34375 160.5 L 277.375 160.5 L 277.375 155.46875 L 272.34375 155.46875 z M 549.5 155.90625 L 554.5625 155.90625 L 554.5625 165.5625 L 549.5 165.5625 L 549.5 155.90625 z M 821.625 155.90625 L 826.6875 155.90625 L 826.6875 165.5625 L 821.625 165.5625 L 821.625 155.90625 z M 942.65625 160.5 L 947.6875 160.5 L 947.6875 165.5625 L 942.65625 165.5625 L 942.65625 160.5 z M 962.84375 160.5 L 967.875 160.5 L 967.875 165.5625 L 962.84375 165.5625 L 962.84375 160.5 z M 983.03125 160.5 L 988.0625 160.5 L 988.0625 165.5625 L 983.03125 165.5625 L 983.03125 160.5 z "
       id="text3018"
       transform="translate(0,308.2677)" />
  </g>
</svg>
